<svg height="200" width="200" xmlns="http://www.w3.org/2000/svg" viewBox="0 0 56.837 56.837" xml:space="preserve"><path d="M27.918 18.325c5.052 0 9.163-4.11 9.163-9.163C37.081 4.11 32.971 0 27.918 0s-9.163 4.11-9.163 9.162c.001 5.053 4.111 9.163 9.163 9.163zm-7-9.488c0-3.309 2.691-6 6-6a1 1 0 1 1 0 2c-2.206 0-4 1.794-4 4a1 1 0 1 1-2 0z"/><path d="M43.598 13.837h-5.556a11.178 11.178 0 0 1-8.123 6.28V34c0 1.103-.897 2-2 2s-2-.897-2-2V20.116a11.174 11.174 0 0 1-8.123-6.279H13.24a6.329 6.329 0 0 0-6.321 6.321v30.357a6.328 6.328 0 0 0 6.321 6.321h30.358a6.329 6.329 0 0 0 6.321-6.321V20.158a6.33 6.33 0 0 0-6.321-6.321zM27.918 38c2.206 0 4-1.794 4-4v-7.984a8.406 8.406 0 0 1 4.418 7.402c0 4.643-3.776 8.419-8.418 8.419S19.5 38.061 19.5 33.418a8.406 8.406 0 0 1 4.418-7.402V34c0 2.206 1.795 4 4 4zM15.151 51.837c-2.077 0-3.767-1.69-3.767-3.768s1.69-3.768 3.767-3.768c2.078 0 3.768 1.69 3.768 3.768s-1.69 3.768-3.768 3.768zm.767-18c0-5.15 3.231-9.633 8-11.306v1.276a10.402 10.402 0 0 0-6.418 9.61c0 5.745 4.674 10.419 10.418 10.419s10.418-4.674 10.418-10.419c0-4.231-2.552-8.004-6.418-9.61v-1.276a11.94 11.94 0 0 1 8 11.306c0 6.617-5.383 12-12 12s-12-5.383-12-12zm21 19a1 1 0 1 1 0-2c3.86 0 7-3.141 7-7a1 1 0 1 1 2 0c0 4.963-4.037 9-9 9z"/></svg>
